<svg width="20" height="20" viewBox="0 0 20 20" fill="none" xmlns="http://www.w3.org/2000/svg">
<g id="Frame">
<path id="Vector" d="M8.29484 1.84208C9.40617 1.60945 10.5671 1.60211 11.7039 1.83979C11.8514 2.80608 12.4205 3.69902 13.3329 4.22578C14.2453 4.75253 15.3032 4.79895 16.2137 4.4435C16.988 5.30923 17.5621 6.31828 17.9163 7.39702C17.1542 8.0079 16.6663 8.94658 16.6663 9.99925C16.6663 11.0526 17.1548 11.9918 17.9176 12.6026C17.7415 13.1363 17.5085 13.6601 17.2164 14.1659C16.9243 14.6718 16.5873 15.1355 16.2131 15.5548C15.3027 15.1996 14.2451 15.2462 13.3329 15.7728C12.4213 16.2991 11.8523 17.1911 11.7043 18.1565C10.593 18.3891 9.43209 18.3964 8.29519 18.1588C8.14774 17.1925 7.57859 16.2995 6.66623 15.7728C5.75387 15.246 4.69599 15.1996 3.78543 15.5551C3.01114 14.6893 2.43705 13.6803 2.08287 12.6015C2.84493 11.9907 3.3329 11.0519 3.3329 9.99925C3.3329 8.946 2.84437 8.00681 2.08154 7.39595C2.25761 6.86227 2.49062 6.33849 2.78268 5.83261C3.07476 5.32673 3.41186 4.86305 3.78601 4.44373C4.69644 4.79893 5.75406 4.75242 6.66623 4.22578C7.57787 3.69943 8.14684 2.8075 8.29484 1.84208ZM9.99959 12.4993C11.3803 12.4993 12.4996 11.38 12.4996 9.99925C12.4996 8.61858 11.3803 7.49928 9.99959 7.49928C8.61884 7.49928 7.49956 8.61858 7.49956 9.99925C7.49956 11.38 8.61884 12.4993 9.99959 12.4993Z" fill="#2B2B2B"/>
</g>
</svg>
