<svg width="20" height="20" viewBox="0 0 20 20" fill="none" xmlns="http://www.w3.org/2000/svg">
<g id="Frame">
<path id="Vector" d="M13.3328 1.6665V3.33317H12.4995V6.03559C12.4995 7.00026 12.7088 7.95344 13.1131 8.82934L16.6808 16.5593C16.9701 17.1862 16.6965 17.9288 16.0697 18.2181C15.9054 18.2939 15.7268 18.3332 15.5458 18.3332H4.45312C3.76277 18.3332 3.20312 17.7735 3.20312 17.0832C3.20312 16.9023 3.24238 16.7236 3.31818 16.5593L6.88588 8.82934C7.29013 7.95344 7.49949 7.00026 7.49949 6.03559V3.33317H6.66616V1.6665H13.3328ZM11.1561 8.33417H8.84292C8.756 8.63684 8.65192 8.93492 8.53092 9.22684L8.39917 9.52775L5.10366 16.6665H14.8945L11.5998 9.52775C11.4212 9.14075 11.273 8.74167 11.1561 8.33417ZM9.16617 6.03559C9.16617 6.24672 9.15817 6.45742 9.14217 6.66723H10.8568C10.8491 6.56635 10.8433 6.46527 10.8393 6.36404L10.8328 6.03559V3.33317H9.16617V6.03559Z" fill="#828282"/>
</g>
</svg>
