<svg width="20" height="20" viewBox="0 0 20 20" fill="none" xmlns="http://www.w3.org/2000/svg">
<g id="Frame">
<path id="Vector" d="M9.99992 11.6668V13.3335C7.23849 13.3335 4.99992 15.5721 4.99992 18.3335H3.33325C3.33325 14.6516 6.31802 11.6668 9.99992 11.6668ZM9.99992 10.8335C7.23742 10.8335 4.99992 8.596 4.99992 5.8335C4.99992 3.071 7.23742 0.833496 9.99992 0.833496C12.7624 0.833496 14.9999 3.071 14.9999 5.8335C14.9999 8.596 12.7624 10.8335 9.99992 10.8335ZM9.99992 9.16683C11.8416 9.16683 13.3333 7.67516 13.3333 5.8335C13.3333 3.99183 11.8416 2.50016 9.99992 2.50016C8.15825 2.50016 6.66658 3.99183 6.66658 5.8335C6.66658 7.67516 8.15825 9.16683 9.99992 9.16683ZM14.9999 17.9168L12.5508 19.2044L13.0186 16.4772L11.0372 14.5459L13.7753 14.1481L14.9999 11.6668L16.2245 14.1481L18.9627 14.5459L16.9813 16.4772L17.449 19.2044L14.9999 17.9168Z" fill="#828282"/>
</g>
</svg>
